<?xml version="1.0" standalone="no"?>
<!DOCTYPE svg PUBLIC "-//W3C//DTD SVG 20010904//EN"
 "http://www.w3.org/TR/2001/REC-SVG-20010904/DTD/svg10.dtd">
<svg version="1.0" xmlns="http://www.w3.org/2000/svg"
 width="118.000000pt" height="34.000000pt" viewBox="0 0 118.000000 34.000000"
 preserveAspectRatio="xMidYMid meet">

<g transform="translate(0.000000,34.000000) scale(0.100000,-0.100000)"
fill="#000000" stroke="none">
<path d="M684 198 c-11 -14 -20 -40 -21 -66 -1 -29 -7 -48 -20 -57 -15 -12
-16 -14 -2 -15 22 0 35 17 46 60 13 48 44 55 41 9 -2 -25 1 -34 14 -37 14 -3
16 2 11 32 -4 29 -2 36 11 36 20 0 20 7 -1 28 -12 12 -18 13 -21 4 -4 -14 -42
-16 -42 -2 0 6 7 10 15 10 8 0 15 5 15 10 0 18 -26 11 -46 -12z"/>
<path d="M37 193 c-15 -18 -20 -41 -18 -75 1 -20 33 -32 61 -23 29 9 25 23 -5
17 -30 -5 -42 19 -27 54 9 18 19 24 42 24 18 0 29 4 25 10 -10 16 -61 11 -78
-7z"/>
<path d="M400 188 c-23 -25 -26 -70 -6 -88 18 -14 58 -10 63 7 3 7 -3 10 -15
7 -29 -8 -45 18 -31 50 9 19 20 26 41 26 15 0 28 5 28 10 0 19 -59 10 -80 -12z"/>
<path d="M124 146 c-8 -45 0 -56 39 -52 23 2 33 10 38 27 18 62 2 81 -22 28
-17 -39 -35 -39 -31 1 5 42 -16 38 -24 -4z"/>
<path d="M235 166 c-2 -6 -8 -32 -13 -58 -8 -39 -7 -48 4 -48 8 0 14 8 14 18
0 13 8 18 27 17 30 0 58 40 47 69 -7 18 -74 20 -79 2z m55 -26 c0 -11 -7 -23
-15 -27 -21 -8 -28 1 -20 26 8 27 35 27 35 1z"/>
<path d="M495 170 c-2 -3 -6 -22 -10 -43 -9 -46 10 -51 20 -6 4 19 15 33 26
36 10 3 19 9 19 13 0 8 -50 8 -55 0z"/>
<path d="M566 161 c-10 -11 -16 -30 -14 -43 2 -19 9 -23 37 -23 34 -1 51 21
51 64 0 25 -52 26 -74 2z m54 -9 c0 -17 -27 -45 -38 -39 -16 11 -2 47 19 47
11 0 19 -4 19 -8z"/>
<path d="M797 135 c4 -29 1 -50 -7 -60 -10 -12 -10 -15 3 -15 15 0 77 87 77
108 0 23 -18 11 -31 -20 l-13 -32 -8 32 c-13 49 -29 39 -21 -13z"/>
<path d="M970 169 c-17 -5 -3 -7 44 -8 38 -1 67 1 65 3 -10 8 -86 12 -109 5z"/>
<path d="M1095 172 c-3 -3 -5 -18 -5 -33 0 -15 -12 -41 -26 -58 -14 -17 -21
-31 -16 -31 5 0 15 7 22 15 7 8 24 14 39 13 15 -1 32 2 39 6 20 12 31 49 21
67 -8 16 -64 31 -74 21z m60 -23 c4 -5 4 -21 1 -35 -5 -17 -13 -24 -31 -24
-23 0 -25 3 -19 28 4 15 9 30 11 35 6 11 31 9 38 -4z"/>
<path d="M867 49 c7 -7 15 -10 18 -7 3 3 -2 9 -12 12 -14 6 -15 5 -6 -5z"/>
<path d="M1140 50 c-9 -6 -10 -10 -3 -10 6 0 15 5 18 10 8 12 4 12 -15 0z"/>
<path d="M998 43 c7 -3 16 -2 19 1 4 3 -2 6 -13 5 -11 0 -14 -3 -6 -6z"/>
<path d="M920 29 c32 -9 148 -9 180 0 14 4 -27 7 -90 7 -63 0 -104 -3 -90 -7z"/>
</g>
</svg>
